<?xml version="1.0" encoding="UTF-8"?>
<svg id="Ebene_2" data-name="Ebene 2" xmlns="http://www.w3.org/2000/svg" viewBox="0 0 3567.36 7693.83">
  <defs>
    <style>
      .cls-1 {
        stroke: #000;
      }

      .cls-1, .cls-2 {
        fill: none;
        stroke-miterlimit: 10;
        stroke-width: 10px;
      }

      .cls-3 {
        fill: #000;
        stroke-width: 0px;
      }

      .cls-2 {
        stroke: #1d1d1b;
        stroke-linecap: round;
      }
    </style>
  </defs>
  <g id="Ebene_1-2" data-name="Ebene 1">
    <path class="cls-3" d="M2754.2,7693.83l-3.53-.23c-4.42-.29-447.01-29.3-857.97-79.5l-5.14-.63.81-5.11c19.41-123,24.74-254.08,15.84-389.63-7.92-120.65-27.48-243.68-56.55-355.78-55.2-212.85-139.66-369.44-215.16-398.93l-.53-.24c-35.61-18.95-82.34-30.68-123.56-41.02-59.54-14.95-110.97-27.85-119.26-58.37-4.89-18,6.03-39.81,33.39-66.68l.15-.14c206.27-186.59,314.82-411.95,322.62-669.83,3.24-107.23-11.1-220.47-42.62-336.57-26.01-95.8-63.68-193.66-111.96-290.85-83.15-167.41-176.26-289.17-208.32-321.9-95.5-97.51-378.65-119.6-463.16-124.05-87.06-4.59-301.91,17.86-474.55,35.89-108.52,11.33-202.24,21.12-238,21.43-1.41.01-2.84.02-4.23.02-164.99,0-189.07-85.64-201.86-189.07-3.43-27.72,7.46-61.71,32.35-101.02,22.5-35.54,57.07-76.48,102.77-121.69,78.42-77.6,191.54-169.86,336.22-274.23,255.75-184.49,543.97-358.84,638.68-416.14,10.49-6.34,18.9-11.43,24.98-15.15,64.73-39.53,134.2-108.27,185.85-183.87,43.57-63.78,95.06-162.31,92.91-269.54-1.07-53.26,4.11-228.74,18.97-452.13,13.53-203.43,39.71-516.87,87.6-854.81,51.28-361.89,116.47-676.35,193.76-934.65,45.29-151.34,95.26-284.73,148.54-396.46,58.38-122.42,122.19-221.88,189.65-295.61l2.95-3.22,3.59,2.48c106.89,73.95,211.8,262.57,304.36,428.99,83.33,149.82,162.04,291.34,221.02,307.73,10.29,2.86,19.55,1.81,28.31-3.22,49.53-28.43,101.81-181.38,151.19-442.33,37.49-198.1,60.09-389.95,60.32-391.86l.69-5.89,5.69,1.67c.53.16,53.88,16.01,138.77,56.43,78.23,37.25,200.17,103.64,336.83,208.38l3.9,2.99-2.92,3.95c-54.36,73.6-95.14,160.25-121.2,257.54-22.49,83.95-34.73,178.68-36.39,281.54-3.05,189.31,28.62,370.99,54.08,516.97,12.33,70.71,22.98,131.78,26.24,176.58,2.92,40.08,5.33,95.73,8.13,160.18,6.4,147.58,15.17,349.69,37.7,545.74,12.28,106.91,27.6,202.06,45.54,282.81,20.84,93.88,45.95,171.71,74.61,231.33l1.37,2.84-1.97,2.46c-33.02,41.11-82.25,111.22-129.26,211.75-45.21,96.69-77.2,197.7-95.08,300.24-21.14,121.27-21.83,242.17-2.05,359.36,22.83,135.23,73.18,266.31,149.68,389.6l1.33,2.14-.93,2.34c-7.36,18.44-31.28,101.93-54.46,229.94-19.69,108.7-43.72,278.01-46.45,467.38-2.94,204.1,19.15,388.71,65.65,548.7,57.23,196.9,151.75,356.54,280.96,474.49l2.3,2.1-.87,2.99c-67.17,231.08-803.47,1950.8-810.9,1968.14l-1.39,3.25ZM1899.05,7604.8c389.75,47.41,806.21,75.75,848.75,78.58,36.14-84.44,737.43-1723.85,808.22-1960.77-129.4-118.99-224.11-279.45-281.51-476.97-46.78-160.95-69-346.54-66.04-551.63,2.74-190.05,26.86-359.96,46.61-469.02,22.44-123.92,45.73-206.74,54.11-229.48-76.45-123.78-126.83-255.36-149.74-391.1-19.97-118.31-19.28-240.35,2.06-362.74,18.03-103.41,50.28-205.27,95.87-302.76,46.5-99.45,95.22-169.47,128.56-211.32-28.43-59.93-53.32-137.51-74.01-230.65-18.01-81.09-33.38-176.58-45.71-283.84-22.57-196.4-31.34-398.72-37.75-546.44-2.79-64.37-5.2-119.96-8.11-159.89-3.23-44.3-13.84-105.14-26.12-175.59-24.18-138.67-57.3-328.59-54.23-518.85,1.67-103.68,14.03-199.23,36.73-283.97,25.92-96.76,66.25-183.17,119.91-256.93-134.28-102.42-253.9-167.51-330.9-204.19-68.47-32.62-116.16-49.1-131.9-54.21-4.14,34.08-25.87,207.79-59.71,386.57-50.66,267.67-103.15,418.79-156.04,449.14-11.04,6.34-23.14,7.74-35.96,4.18-63.01-17.51-139.04-154.21-227.08-312.5-90.98-163.58-193.97-348.75-297.74-423.11-127.03,140.48-239.06,370.89-333.03,684.94-77.15,257.82-142.23,571.79-193.44,933.19-47.84,337.64-74,650.81-87.52,854.07-14.84,223.09-20.01,398.18-18.95,451.26,2.2,109.87-50.26,210.4-94.65,275.38-52.41,76.71-123.02,146.53-188.9,186.76-6.09,3.72-14.52,8.82-25.02,15.17C385.66,3959.78-6.87,4280.57,10.54,4421.4c6.9,55.85,16.94,99.38,43.48,130.27,29.28,34.08,76.47,50.03,148.28,50.03,1.44,0,2.87,0,4.32-.02,35.28-.31,128.78-10.07,237.05-21.38,172.98-18.07,388.27-40.55,476.11-35.93,52.49,2.76,155.43,10.69,255.15,32.72,103.53,22.88,175.75,54.61,214.63,94.32,32.42,33.1,126.44,155.97,210.13,324.45,48.57,97.78,86.47,196.25,112.65,292.68,31.79,117.06,46.24,231.28,42.97,339.5-7.89,260.67-117.5,488.4-325.82,676.87-24.16,23.74-34.48,42.87-30.68,56.85,6.75,24.87,57.9,37.7,112.04,51.29,41.68,10.46,88.92,22.32,125.57,41.76,38.9,15.33,80.19,61.68,119.44,134.06,38.95,71.83,74.04,165.74,101.49,271.56,29.23,112.7,48.89,236.37,56.85,357.64,8.82,134.4,3.73,264.49-15.15,386.72Z"/>
    <line class="cls-1" x1="2890.03" y1="2327.14" x2="3324.57" y2="2179.84"/>
    <line class="cls-1" x1="2947.77" y1="2497.48" x2="3348.05" y2="2356.26"/>
    <line class="cls-1" x1="3023.14" y1="2648.75" x2="3380.94" y2="2520.92"/>
    <line class="cls-1" x1="3095.3" y1="2820.34" x2="3436.27" y2="2689.47"/>
    <ellipse class="cls-2" cx="3046.95" cy="1507.41" rx="94.33" ry="151.04" transform="translate(-230.41 604.58) rotate(-10.92)"/>
  </g>
</svg>